HIERARCHY
ROOT Hips
{
	OFFSET 0.000000 0.000000 0.000000
	CHANNELS 6 Xposition Yposition Zposition Zrotation Xrotation Yrotation
	JOINT LeftHipJoint
	{
		OFFSET 0.100000 0.000000 0.000000
		CHANNELS 6 Xposition Yposition Zposition Zrotation Xrotation Yrotation
		JOINT LeftUpLeg
		{
			OFFSET 0.107972 0.000000 0.000000
			CHANNELS 6 Xposition Yposition Zposition Zrotation Xrotation Yrotation
			JOINT LeftLeg
			{
				OFFSET 0.000000 0.000000 -0.351231
				CHANNELS 6 Xposition Yposition Zposition Zrotation Xrotation Yrotation
				JOINT LeftFoot
				{
					OFFSET 0.000000 0.000000 -0.469094
					CHANNELS 6 Xposition Yposition Zposition Zrotation Xrotation Yrotation
					End Site
					{
						OFFSET 0.000000 -0.100000 0.000000
					}
				}
			}
		}
	}
	JOINT LowerBack
	{
		OFFSET 0.000000 0.000000 0.100000
		CHANNELS 6 Xposition Yposition Zposition Zrotation Xrotation Yrotation
		JOINT Spine
		{
			OFFSET 0.000000 0.000000 0.194444
			CHANNELS 6 Xposition Yposition Zposition Zrotation Xrotation Yrotation
			JOINT Spine1
			{
				OFFSET 0.000000 0.000000 0.227222
				CHANNELS 6 Xposition Yposition Zposition Zrotation Xrotation Yrotation
				JOINT LeftShoulder
				{
					OFFSET 0.100000 0.000000 0.000000
					CHANNELS 6 Xposition Yposition Zposition Zrotation Xrotation Yrotation
					JOINT LeftArm
					{
						OFFSET 0.123584 0.000000 0.000000
						CHANNELS 6 Xposition Yposition Zposition Zrotation Xrotation Yrotation
						JOINT LeftForeArm
						{
							OFFSET 0.229562 0.000000 0.000000
							CHANNELS 6 Xposition Yposition Zposition Zrotation Xrotation Yrotation
							JOINT LeftHand
							{
								OFFSET 0.160834 0.000000 0.000000
								CHANNELS 6 Xposition Yposition Zposition Zrotation Xrotation Yrotation
								End Site
								{
									OFFSET 0.100000 0.000000 0.000000
								}
							}
						}
					}
				}
				JOINT Neck
				{
					OFFSET 0.000000 0.000000 0.100000
					CHANNELS 6 Xposition Yposition Zposition Zrotation Xrotation Yrotation
					JOINT Neck1
					{
						OFFSET 0.000000 0.000000 0.161555
						CHANNELS 6 Xposition Yposition Zposition Zrotation Xrotation Yrotation
						End Site
						{
							OFFSET 0.000000 0.000000 0.081267
						}
					}
				}
				JOINT RightShoulder
				{
					OFFSET -0.100000 0.000000 0.000000
					CHANNELS 6 Xposition Yposition Zposition Zrotation Xrotation Yrotation
					JOINT RightArm
					{
						OFFSET -0.123584 0.000000 0.000000
						CHANNELS 6 Xposition Yposition Zposition Zrotation Xrotation Yrotation
						JOINT RightForeArm
						{
							OFFSET -0.229562 0.000000 0.000000
							CHANNELS 6 Xposition Yposition Zposition Zrotation Xrotation Yrotation
							JOINT RightHand
							{
								OFFSET -0.160834 0.000000 0.000000
								CHANNELS 6 Xposition Yposition Zposition Zrotation Xrotation Yrotation
								End Site
								{
									OFFSET -0.100000 0.000000 0.000000
								}
							}
						}
					}
				}
			}
		}
	}
	JOINT RightHipJoint
	{
		OFFSET -0.100000 0.000000 0.000000
		CHANNELS 6 Xposition Yposition Zposition Zrotation Xrotation Yrotation
		JOINT RightUpLeg
		{
			OFFSET -0.107972 0.000000 0.000000
			CHANNELS 6 Xposition Yposition Zposition Zrotation Xrotation Yrotation
			JOINT RightLeg
			{
				OFFSET 0.000000 0.000000 -0.351231
				CHANNELS 6 Xposition Yposition Zposition Zrotation Xrotation Yrotation
				JOINT RightFoot
				{
					OFFSET 0.000000 0.000000 -0.469094
					CHANNELS 6 Xposition Yposition Zposition Zrotation Xrotation Yrotation
					End Site
					{
						OFFSET 0.000000 -0.100000 0.000000
					}
				}
			}
		}
	}
}
MOTION
Frames: 7
Frame Time: 0.041667
0.000000 0.000000 0.000000 -0.000003 13.449028 -1.991164 0.100000 -0.000000 -0.000000 -0.000000 -0.000000 0.000000 0.107972 0.000000 -0.000000 43.704980 -80.122996 38.588161 0.000000 0.000000 -0.351231 6.453333 112.583374 9.566780 0.000000 0.000000 -0.469094 -0.000001 0.000003 -0.000000 0.000000 -0.000000 0.100000 -0.000000 -0.000000 -0.000000 0.000000 -0.000000 0.194444 -0.123339 3.543133 -30.828803 0.000000 0.000000 0.227222 16.780107 0.000002 0.000000 0.100000 0.000000 -0.000000 -0.000001 0.000002 0.000002 0.123584 -0.000000 -0.000000 17.425378 -54.963311 44.516219 0.229562 -0.000000 0.000000 -33.079658 0.000005 0.000003 0.160834 -0.000000 -0.000000 -0.000002 0.000000 0.000000 -0.000000 0.000000 0.100000 -0.000000 0.000001 0.000002 -0.000000 0.000000 0.161555 26.826367 55.075497 -14.418167 -0.100000 0.000000 0.000000 -0.000001 0.000002 0.000002 -0.123584 0.000000 0.000000 63.103865 -10.051912 28.976466 -0.229562 -0.000000 -0.000000 31.191674 -0.000002 -0.000000 -0.160834 -0.000000 0.000000 -0.000000 -0.000001 0.000001 -0.100000 0.000000 0.000000 -0.000000 -0.000000 0.000000 -0.107972 0.000000 0.000000 -5.776846 -43.044037 9.464105 -0.000000 -0.000000 -0.351231 31.355824 65.379978 -18.202521 -0.000000 0.000000 -0.469094 0.000000 -0.000000 0.000001 
0.000000 0.000000 0.000000 -0.000001 13.583920 -2.029897 0.100000 0.000000 0.000000 0.000000 -0.000000 -0.000000 0.107972 0.000000 -0.000000 42.429036 -79.927543 37.153596 0.000000 0.000000 -0.351231 6.966815 112.560049 8.953143 0.000000 -0.000000 -0.469094 0.000002 0.000000 0.000001 0.000000 -0.000000 0.100000 0.000000 -0.000000 -0.000000 0.000000 0.000000 0.194444 -0.132448 3.731624 -30.748371 0.000000 -0.000000 0.227222 16.738046 0.000001 0.000003 0.100000 0.000000 0.000000 0.000000 -0.000000 -0.000002 0.123584 0.000000 -0.000000 17.112564 -54.716212 43.876503 0.229562 0.000000 -0.000000 -33.594736 0.000006 0.000003 0.160834 0.000000 0.000000 -0.000002 -0.000001 -0.000000 -0.000000 0.000000 0.100000 0.000001 -0.000000 -0.000002 -0.000000 0.000000 0.161555 27.838447 54.884890 -15.490741 -0.100000 0.000000 0.000000 0.000000 -0.000000 -0.000002 -0.123584 0.000000 0.000000 63.323968 -10.104721 29.251545 -0.229562 -0.000000 0.000000 31.131138 0.000001 -0.000004 -0.160834 -0.000000 0.000000 -0.000001 0.000001 0.000001 -0.100000 -0.000000 -0.000000 0.000000 -0.000000 -0.000000 -0.107972 0.000000 0.000000 -5.564643 -42.369026 10.253097 -0.000000 -0.000000 -0.351231 31.384426 64.424701 -18.886877 -0.000000 -0.000000 -0.469094 -0.000000 -0.000000 0.000000 
0.000000 0.000000 0.000000 -0.000000 13.696101 -2.071293 0.100000 -0.000000 0.000000 -0.000000 0.000001 0.000000 0.107972 0.000000 -0.000000 41.123903 -79.727637 35.675232 0.000000 0.000000 -0.351231 7.511086 112.517142 8.303797 -0.000000 0.000000 -0.469094 0.000000 -0.000001 -0.000001 0.000000 -0.000000 0.100000 -0.000000 -0.000000 0.000000 0.000000 0.000000 0.194444 -0.142332 3.929283 -30.665975 -0.000000 -0.000000 0.227222 16.689724 0.000002 0.000005 0.100000 -0.000000 -0.000000 -0.000001 -0.000001 0.000000 0.123584 0.000000 0.000000 16.661471 -54.407091 43.090424 0.229562 0.000000 -0.000000 -34.166802 -0.000002 0.000001 0.160834 -0.000000 0.000000 -0.000001 -0.000001 -0.000000 0.000000 -0.000000 0.100000 -0.000000 -0.000001 -0.000001 -0.000000 0.000000 0.161555 28.964790 54.772817 -16.674157 -0.100000 -0.000000 -0.000000 -0.000001 -0.000001 0.000000 -0.123584 0.000000 0.000000 63.562581 -10.101970 29.520634 -0.229562 -0.000000 0.000000 31.090287 -0.000000 0.000002 -0.160834 -0.000000 0.000000 -0.000001 0.000003 0.000001 -0.100000 0.000000 -0.000000 -0.000000 0.000001 0.000000 -0.107972 0.000000 0.000000 -5.352062 -41.720161 11.008166 0.000000 0.000000 -0.351231 31.380553 63.542882 -19.533200 -0.000000 -0.000000 -0.469094 0.000000 -0.000001 0.000001 
0.000000 0.000000 0.000000 0.000000 13.773625 -2.122367 0.100000 -0.000000 -0.000000 -0.000000 -0.000000 0.000000 0.107972 0.000000 0.000000 39.864143 -79.509331 34.231948 0.000000 -0.000000 -0.351231 8.050755 112.442884 7.654545 -0.000000 -0.000000 -0.469094 -0.000001 0.000002 -0.000002 -0.000000 0.000000 0.100000 -0.000000 0.000000 -0.000000 0.000000 -0.000000 0.194444 -0.153693 4.139990 -30.580505 0.000000 0.000000 0.227222 16.636393 -0.000001 -0.000001 0.100000 -0.000000 0.000000 -0.000001 0.000001 -0.000002 0.123584 0.000000 -0.000000 16.011625 -53.988356 42.113953 0.229562 0.000000 -0.000000 -34.790894 0.000001 0.000002 0.160834 -0.000000 0.000000 -0.000001 0.000001 -0.000001 -0.000000 -0.000000 0.100000 -0.000001 0.000000 -0.000001 0.000000 0.000000 0.161555 30.203513 54.741719 -17.972581 -0.100000 -0.000000 -0.000000 -0.000001 0.000001 -0.000002 -0.123584 0.000000 -0.000000 63.815134 -10.028395 29.782504 -0.229562 -0.000000 0.000000 31.073922 0.000005 0.000002 -0.160834 0.000000 0.000000 0.000001 -0.000000 0.000002 -0.100000 0.000000 0.000000 -0.000000 -0.000000 0.000000 -0.107972 0.000000 0.000000 -5.156877 -41.125928 11.725209 -0.000000 0.000000 -0.351231 31.386277 62.759651 -20.155084 0.000000 -0.000000 -0.469094 0.000000 -0.000001 0.000000 
0.000000 0.000000 0.000000 -0.000000 13.821218 -2.174547 0.100000 0.000000 0.000000 -0.000000 -0.000000 0.000000 0.107972 0.000000 -0.000000 38.586703 -79.298435 32.766009 0.000000 0.000000 -0.351231 8.616635 112.318745 6.997649 0.000000 0.000000 -0.469094 -0.000001 -0.000001 -0.000000 -0.000000 -0.000000 0.100000 0.000000 -0.000000 0.000000 0.000000 0.000000 0.194444 -0.165964 4.362338 -30.498219 0.000000 -0.000000 0.227222 16.574024 -0.000002 -0.000007 0.100000 -0.000000 -0.000000 -0.000001 -0.000000 0.000002 0.123584 0.000000 -0.000000 15.128574 -53.421724 40.923659 0.229562 0.000000 0.000000 -35.469312 -0.000007 -0.000001 0.160834 0.000000 0.000000 -0.000001 -0.000001 -0.000002 0.000000 0.000000 0.100000 -0.000001 -0.000000 0.000002 0.000000 0.000000 0.161555 31.555853 54.793150 -19.382989 -0.100000 -0.000000 0.000000 -0.000001 -0.000000 0.000002 -0.123584 0.000000 -0.000000 64.089031 -9.873974 30.043700 -0.229562 -0.000000 -0.000000 31.085205 -0.000000 -0.000001 -0.160834 -0.000000 -0.000000 -0.000001 0.000001 -0.000001 -0.100000 -0.000000 -0.000000 -0.000000 -0.000000 0.000000 -0.107972 0.000000 0.000000 -4.961900 -40.620802 12.404410 -0.000000 -0.000000 -0.351231 31.410780 62.086706 -20.775188 -0.000000 0.000000 -0.469094 0.000000 -0.000002 -0.000000 
0.000000 0.000000 0.000000 0.000002 13.840492 -2.231656 0.100000 0.000000 -0.000000 -0.000000 -0.000001 0.000000 0.107972 0.000000 -0.000000 37.443664 -79.083578 31.442052 0.000000 -0.000000 -0.351231 9.207912 112.122801 6.318110 0.000000 0.000000 -0.469094 0.000000 -0.000000 -0.000000 -0.000000 -0.000000 0.100000 -0.000000 -0.000001 0.000000 0.000000 0.000000 0.194444 -0.179249 4.589889 -30.420051 -0.000000 -0.000000 0.227222 16.501139 0.000000 0.000001 0.100000 -0.000000 -0.000000 0.000000 0.000001 0.000001 0.123584 -0.000000 -0.000000 14.102662 -52.728217 39.621671 0.229562 -0.000000 -0.000000 -36.183293 -0.000001 0.000001 0.160834 0.000000 0.000000 0.000000 -0.000000 -0.000001 -0.000000 -0.000000 0.100000 0.000001 0.000001 -0.000000 -0.000000 0.000000 0.161555 32.984291 54.917713 -20.868859 -0.100000 -0.000000 0.000000 0.000000 0.000001 0.000001 -0.123584 0.000000 0.000000 64.388651 -9.647372 30.306482 -0.229562 0.000000 -0.000000 31.114305 0.000001 -0.000003 -0.160834 -0.000000 -0.000000 -0.000001 0.000003 -0.000001 -0.100000 -0.000000 0.000000 -0.000000 -0.000001 0.000000 -0.107972 0.000000 0.000000 -4.782103 -40.216707 13.037118 0.000000 -0.000000 -0.351231 31.486523 61.507547 -21.404192 -0.000000 0.000000 -0.469094 -0.000000 0.000001 0.000001 
0.000000 0.000000 0.000000 -0.000001 13.819980 -2.299892 0.100000 -0.000000 0.000000 0.000000 -0.000000 0.000000 0.107972 0.000000 0.000000 36.381132 -78.862990 30.211788 0.000000 -0.000000 -0.351231 9.785963 111.852120 5.651880 0.000000 0.000000 -0.469094 -0.000000 -0.000001 -0.000000 -0.000000 -0.000000 0.100000 0.000000 -0.000000 -0.000000 0.000000 0.000000 0.194444 -0.194733 4.837136 -30.343805 -0.000000 0.000000 0.227222 16.406434 0.000003 0.000007 0.100000 -0.000000 0.000000 -0.000001 -0.000001 -0.000001 0.123584 0.000000 0.000000 13.021640 -51.924047 38.298042 0.229562 0.000000 -0.000000 -36.941874 -0.000001 0.000000 0.160834 -0.000000 0.000000 -0.000003 0.000001 -0.000000 -0.000000 -0.000000 0.100000 -0.000000 -0.000002 -0.000003 -0.000000 0.000000 0.161555 34.508076 55.118585 -22.436413 -0.100000 0.000000 -0.000000 -0.000001 -0.000001 -0.000001 -0.123584 0.000000 -0.000000 64.739832 -9.356933 30.578934 -0.229562 -0.000000 -0.000000 31.155368 0.000005 -0.000001 -0.160834 0.000000 0.000000 0.000000 0.000000 0.000001 -0.100000 0.000000 -0.000000 0.000000 -0.000000 0.000000 -0.107972 0.000000 0.000000 -4.608933 -39.883421 13.641948 0.000000 0.000000 -0.351231 31.556266 61.002093 -22.008345 -0.000000 0.000000 -0.469094 -0.000000 0.000001 -0.000000 
